<svg width="77" height="77" viewBox="0 0 77 77" fill="none" xmlns="http://www.w3.org/2000/svg">
    <path d="M25.6667 25.6667L25.6667 22.4584C25.6667 15.3708 31.4124 9.62509 38.5 9.62509V9.62509C45.5877 9.62509 51.3334 15.3708 51.3334 22.4584L51.3334 25.6667" stroke="white" stroke-width="2" stroke-linecap="round"/>
    <path d="M48.125 44.9167V38.5" stroke="white" stroke-width="2" stroke-linecap="round"/>
    <path d="M28.875 44.9167V38.5" stroke="white" stroke-width="2" stroke-linecap="round"/>
    <path d="M12.8333 29.6667C12.8333 27.7811 12.8333 26.8383 13.4191 26.2525C14.0049 25.6667 14.9477 25.6667 16.8333 25.6667H60.1667C62.0523 25.6667 62.9951 25.6667 63.5809 26.2525C64.1667 26.8383 64.1667 27.7811 64.1667 29.6667V59.3751C64.1667 63.1463 64.1667 65.0319 62.9951 66.2035C61.8235 67.3751 59.9379 67.3751 56.1667 67.3751H20.8333C17.0621 67.3751 15.1765 67.3751 14.0049 66.2035C12.8333 65.0319 12.8333 63.1463 12.8333 59.3751V29.6667Z" stroke="white" stroke-width="3"/>
    </svg>    