<svg width="82" height="82" viewBox="0 0 82 82" fill="none" xmlns="http://www.w3.org/2000/svg">
    <path d="M66.0301 19.7406L67.2773 18.9073V18.9073L66.0301 19.7406ZM66.0301 55.4262L67.2773 56.2596L66.0301 55.4262ZM62.2594 59.1968L63.0928 60.444L62.2594 59.1968ZM47.8333 61.4954L47.8268 59.9954C47.0009 59.999 46.3333 60.6696 46.3333 61.4954H47.8333ZM47.8333 61.5001L49.175 62.1709C49.2791 61.9626 49.3333 61.7329 49.3333 61.5001H47.8333ZM40.1056 73.3779L41.4472 72.7071L41.4472 72.7071L40.1056 73.3779ZM34.1667 61.5001H32.6667C32.6667 61.7329 32.7209 61.9626 32.825 62.1709L34.1667 61.5001ZM34.1667 61.4954H35.6667C35.6667 60.6696 34.9991 59.999 34.1732 59.9954L34.1667 61.4954ZM19.7405 59.1968L18.9072 60.444H18.9072L19.7405 59.1968ZM15.9699 55.4262L14.7227 56.2596H14.7227L15.9699 55.4262ZM15.9699 19.7406L14.7227 18.9073L15.9699 19.7406ZM19.7405 15.97L20.5739 17.2172V17.2172L19.7405 15.97ZM62.2594 15.97L63.0928 14.7228V14.7228L62.2594 15.97ZM69.8333 37.5834C69.8333 32.8161 69.8351 29.1276 69.5377 26.2039C69.2377 23.2551 68.621 20.9183 67.2773 18.9073L64.7829 20.574C65.7424 22.01 66.2773 23.796 66.5531 26.5075C66.8315 29.2442 66.8333 32.7536 66.8333 37.5834H69.8333ZM67.2773 56.2596C68.621 54.2485 69.2377 51.9117 69.5377 48.9629C69.8351 46.0392 69.8333 42.3508 69.8333 37.5834H66.8333C66.8333 42.4132 66.8315 45.9227 66.5531 48.6593C66.2773 51.3709 65.7424 53.1569 64.7829 54.5928L67.2773 56.2596ZM63.0928 60.444C64.7489 59.3375 66.1707 57.9156 67.2773 56.2596L64.7829 54.5928C63.8952 55.9213 62.7546 57.062 61.4261 57.9496L63.0928 60.444ZM47.8399 62.9954C51.5188 62.9794 54.4665 62.9091 56.8871 62.5745C59.3318 62.2365 61.3362 61.6178 63.0928 60.444L61.4261 57.9496C60.1714 58.788 58.6488 59.3024 56.4763 59.6027C54.2798 59.9064 51.52 59.9793 47.8268 59.9954L47.8399 62.9954ZM49.3333 61.5001V61.4954H46.3333V61.5001H49.3333ZM43.2361 74.0487L49.175 62.1709L46.4917 60.8293L40.5528 72.7071L43.2361 74.0487ZM38.7639 74.0487C39.6852 75.8913 42.3148 75.8913 43.2361 74.0487L40.5528 72.7071C40.737 72.3386 41.2629 72.3385 41.4472 72.7071L38.7639 74.0487ZM32.825 62.1709L38.7639 74.0487L41.4472 72.7071L35.5083 60.8293L32.825 62.1709ZM32.6667 61.4954V61.5001H35.6667V61.4954H32.6667ZM18.9072 60.444C20.6638 61.6178 22.6681 62.2365 25.1129 62.5745C27.5335 62.9091 30.4812 62.9794 34.1601 62.9954L34.1732 59.9954C30.48 59.9793 27.7202 59.9064 25.5237 59.6027C23.3512 59.3024 21.8286 58.788 20.5739 57.9496L18.9072 60.444ZM14.7227 56.2596C15.8292 57.9156 17.2511 59.3375 18.9072 60.444L20.5739 57.9496C19.2454 57.062 18.1048 55.9213 17.2171 54.5928L14.7227 56.2596ZM12.1667 37.5834C12.1667 42.3508 12.1648 46.0392 12.4623 48.9629C12.7622 51.9117 13.3789 54.2485 14.7227 56.2596L17.2171 54.5928C16.2576 53.1569 15.7227 51.3709 15.4469 48.6593C15.1685 45.9227 15.1667 42.4132 15.1667 37.5834H12.1667ZM14.7227 18.9073C13.3789 20.9183 12.7622 23.2551 12.4623 26.2039C12.1648 29.1276 12.1667 32.8161 12.1667 37.5834H15.1667C15.1667 32.7536 15.1685 29.2442 15.4469 26.5075C15.7227 23.796 16.2576 22.01 17.2171 20.574L14.7227 18.9073ZM18.9072 14.7228C17.2511 15.8293 15.8292 17.2512 14.7227 18.9073L17.2171 20.574C18.1048 19.2455 19.2454 18.1049 20.5739 17.2172L18.9072 14.7228ZM37.5833 12.1667C32.816 12.1667 29.1275 12.1649 26.2038 12.4624C23.2551 12.7623 20.9182 13.379 18.9072 14.7228L20.5739 17.2172C22.0099 16.2577 23.7959 15.7228 26.5074 15.447C29.2441 15.1686 32.7535 15.1667 37.5833 15.1667V12.1667ZM44.4167 12.1667H37.5833V15.1667H44.4167V12.1667ZM63.0928 14.7228C61.0817 13.379 58.7449 12.7623 55.7962 12.4624C52.8724 12.1649 49.184 12.1667 44.4167 12.1667V15.1667C49.2465 15.1667 52.7559 15.1686 55.4925 15.447C58.2041 15.7228 59.9901 16.2577 61.4261 17.2172L63.0928 14.7228ZM67.2773 18.9073C66.1707 17.2512 64.7489 15.8293 63.0928 14.7228L61.4261 17.2172C62.7546 18.1049 63.8952 19.2455 64.7829 20.574L67.2773 18.9073Z" fill="white"/>
    <circle cx="54.6667" cy="37.5834" r="3.41667" fill="white" stroke="white" stroke-linecap="round"/>
    <circle cx="41" cy="37.5834" r="3.41667" fill="white" stroke="white" stroke-linecap="round"/>
    <circle cx="27.3333" cy="37.5834" r="3.41667" fill="white" stroke="white" stroke-linecap="round"/>
</svg>    